<svg xmlns="http://www.w3.org/2000/svg" viewBox="0 0 144 144"><defs><style>.cls-1{fill:#fffc00}.cls-2{fill:#ffd838}.cls-3{fill:none;stroke:#000;stroke-linecap:round;stroke-linejoin:round;stroke-width:3px}.cls-4{fill:#fff}.cls-5{fill:#eaedef}</style></defs><title>04_Memories</title><g id="Memories"><rect class="cls-1" x="10.74" y="23.92" width="65.06" height="111" rx="7.75" ry="7.75" transform="rotate(-10 43.27 79.398)"/><path class="cls-2" d="M83.59 120.8L67 26.75A7.64 7.64 0 0 0 66 24l-16.38 92.63a8.47 8.47 0 0 0 6.87 9.81l19.87 3.5.94-.16a7.76 7.76 0 0 0 6.29-8.98z"/><rect class="cls-3" x="10.74" y="23.92" width="65.06" height="111" rx="7.75" ry="7.75" transform="rotate(-10 43.27 79.398)"/><path class="cls-2" d="M53.45 53.6a7.84 7.84 0 0 0-5-1.3 8.56 8.56 0 0 0-5.82 3.7 16 16 0 0 0-2.52 6.41 15.72 15.72 0 0 0-5-4.76 8.53 8.53 0 0 0-6.79-.9 7.84 7.84 0 0 0-4 3.29c-5.05 8.32 7.15 16.34 7.68 16.68 3.13 2.31 8.59 5.07 11.36 6.81A2 2 0 0 0 46 83c1.79-2.75 5.61-7.56 7.46-11 .36-.53 8.07-12.92-.01-18.4z"/><path class="cls-4" d="M53 54.25a7.07 7.07 0 0 0-4.51-1.17 7.66 7.66 0 0 0-5.19 3.28 14.13 14.13 0 0 0-2.3 5.75 14.19 14.19 0 0 0-4.46-4.27 7.68 7.68 0 0 0-6.07-.84 7.09 7.09 0 0 0-3.6 3c-4.52 7.49 6.42 14.68 6.88 15 2.8 2.07 7.7 4.54 10.18 6.11a1.76 1.76 0 0 0 2.39-.53c1.61-2.46 5-6.77 6.7-9.81.29-.5 7.21-11.61-.02-16.52z"/><path class="cls-5" d="M42.08 63.88a1.13 1.13 0 0 0 1.4-1c.08-.65.18-1.42.28-1.92a11 11 0 0 1 1-3 7.71 7.71 0 0 1 4.62-4 6.41 6.41 0 0 1 2.83-.07 6.76 6.76 0 0 0-3.76-.77 7.66 7.66 0 0 0-5.19 3.28 13.9 13.9 0 0 0-2.19 5.38v.2l-.31 1.57s.65.16 1.32.33z"/><path class="cls-2" d="M38.58 78c2 1.15 4 2.24 5.35 3.08a1.78 1.78 0 0 0 2-.1c-2.47-.92-5.3-1.98-7.35-2.98z"/><path class="cls-5" d="M45 79.2a3.12 3.12 0 0 0-1.56-2.27s-2.44-1.39-3.81-2.21c-1.53-.91-3-1.85-4-2.55-.44-.29-10.73-7-6.48-14.1.17-.25.35-.47.53-.69A7.26 7.26 0 0 0 26.87 60c-4.52 7.49 6.42 14.68 6.88 15 2.8 2.07 7.7 4.54 10.18 6.11a1.77 1.77 0 0 0 1.3.22 3.33 3.33 0 0 0 1.09-.75l-1.21-.76z"/><path class="cls-3" d="M53 54.25a7.07 7.07 0 0 0-4.51-1.17 7.66 7.66 0 0 0-5.19 3.28 14.13 14.13 0 0 0-2.3 5.75 14.19 14.19 0 0 0-4.46-4.27 7.68 7.68 0 0 0-6.07-.84 7.09 7.09 0 0 0-3.6 3c-4.52 7.49 6.42 14.68 6.88 15 2.8 2.07 7.7 4.54 10.18 6.11a1.76 1.76 0 0 0 2.39-.53c1.61-2.46 5-6.77 6.7-9.81.29-.5 7.21-11.61-.02-16.52z"/><rect class="cls-4" x="40.16" y="34.05" width="117.24" height="68.71" rx="8.18" ry="8.18" transform="rotate(-80 98.776 68.403)"/><path class="cls-5" d="M62.55 107.32a8.47 8.47 0 0 0 6.33 9.55l51.19 12.72a15.76 15.76 0 0 1-2.07.91 8.19 8.19 0 0 1-3.63.18l-51.55-9.09a8.19 8.19 0 0 1-6.64-9.48L73.7 12.77a8.19 8.19 0 0 1 1.88-3.94 15.23 15.23 0 0 1 2.87-2.12z"/><rect class="cls-3" x="40.16" y="34.05" width="117.24" height="68.71" rx="8.18" ry="8.18" transform="rotate(-80 98.776 68.403)"/><rect class="cls-1" x="50.39" y="44.28" width="96.77" height="48.25" rx="4.09" ry="4.09" transform="rotate(-80 98.776 68.403)"/><rect class="cls-3" x="50.39" y="44.28" width="96.77" height="48.25" rx="4.09" ry="4.09" transform="rotate(-80 98.776 68.403)"/><circle class="cls-4" cx="94.31" cy="44.62" r="8.22"/><path class="cls-5" d="M97.67 50.92c-8.43 0-9.74-11-4-14.48a8.21 8.21 0 1 0 6.21 14.17 8.45 8.45 0 0 1-2.21.31z"/><circle class="cls-3" cx="94.31" cy="44.62" r="8.22"/><path class="cls-4" d="M72.15 80.21L82 72.54a4.09 4.09 0 0 1 5.32.8l4.36 5.12a2 2 0 0 0 2.66.4l12.17-7.78a4.08 4.08 0 0 1 5.48 1l8 14.79-5.13 29.35a4.08 4.08 0 0 1-4.74 3.32l-39.45-7a4.09 4.09 0 0 1-3.32-4.74z"/><path class="cls-5" d="M72.16 86l11.14-8.7a4.65 4.65 0 0 1 6 .9l5 5.83a2.33 2.33 0 0 0 3 .45l13.84-8.85A4.57 4.57 0 0 1 113 75c.12-.08.23-.17.34-.26l-1.43-2.62a4.08 4.08 0 0 0-5.48-1l-12.14 7.74a2 2 0 0 1-2.66-.4l-4.36-5.12a4.09 4.09 0 0 0-5.32-.8l-9.8 7.67L67.64 106l1.16-.79z"/><path class="cls-3" d="M72.15 80.21L82 72.54a4.09 4.09 0 0 1 5.32.8l4.36 5.12a2 2 0 0 0 2.66.4l12.17-7.78a4.08 4.08 0 0 1 5.48 1l8 14.79-5.13 29.35a4.08 4.08 0 0 1-4.74 3.32l-39.45-7a4.09 4.09 0 0 1-3.32-4.74z"/></g></svg>